<!DOCTYPE svg PUBLIC "-//W3C//DTD SVG 20010904//EN" "http://www.w3.org/TR/2001/REC-SVG-20010904/DTD/svg10.dtd">
<svg version="1.0" xmlns="http://www.w3.org/2000/svg" width="100px" height="100px" viewBox="0 0 1000 1000" preserveAspectRatio="xMidYMid meet">
<g id="layer101" fill="#005596" stroke="none">
 <path d="M365 976 c-226 -82 -355 -257 -355 -481 1 -278 218 -495 495 -495 378 0 612 391 438 734 -102 201 -376 316 -578 242z m125 -201 c0 -8 -10 -34 -21 -58 l-22 -44 28 -49 c16 -27 37 -64 48 -82 l19 -33 44 43 c24 24 44 49 44 56 0 6 6 12 13 12 7 0 28 16 47 35 40 41 46 42 55 13 5 -14 -3 -42 -26 -87 -19 -36 -36 -68 -39 -71 -17 -16 -40 -62 -35 -70 3 -5 -4 -14 -15 -20 -28 -15 -33 -48 -16 -98 21 -59 31 -138 18 -146 -20 -12 -39 6 -91 85 -46 71 -56 80 -79 78 -15 -2 -37 2 -48 9 -12 6 -36 13 -55 16 -32 5 -162 36 -165 39 -1 1 -5 12 -8 25 -7 21 -5 22 42 22 27 0 52 3 55 7 4 4 41 6 83 5 67 -1 75 1 70 16 -3 9 -15 52 -28 94 l-23 77 -50 12 c-79 19 -78 47 1 48 20 1 34 7 38 17 3 9 12 14 20 11 7 -3 29 8 47 23 39 33 49 36 49 15z"/>
 </g>
<g id="layer102" fill="#eef4f8" stroke="none">
 <path d="M441 760 c-18 -15 -40 -26 -47 -23 -8 3 -17 -2 -20 -11 -4 -10 -18 -16 -38 -17 -79 -1 -80 -29 -1 -48 l50 -12 23 -77 c13 -42 25 -85 28 -94 5 -15 -3 -17 -70 -16 -42 1 -79 -1 -83 -5 -3 -4 -28 -7 -55 -7 -47 0 -49 -1 -42 -22 3 -13 7 -24 8 -25 3 -3 133 -34 165 -39 19 -3 43 -10 55 -16 11 -7 33 -11 48 -9 23 2 33 -7 79 -78 52 -79 71 -97 91 -85 13 8 3 87 -18 146 -17 50 -12 83 16 98 11 6 18 15 15 20 -5 8 18 54 35 70 3 3 20 35 39 71 23 45 31 73 26 87 -9 29 -15 28 -55 -13 -19 -19 -40 -35 -47 -35 -7 0 -13 -6 -13 -12 0 -7 -20 -32 -44 -56 l-44 -43 -19 33 c-11 18 -32 55 -48 82 l-28 49 22 44 c21 44 27 73 14 73 -5 -1 -23 -14 -42 -30z"/>
 </g>

</svg>